<?xml version="1.0" standalone="no"?>
<!DOCTYPE svg PUBLIC "-//W3C//DTD SVG 20010904//EN"
 "http://www.w3.org/TR/2001/REC-SVG-20010904/DTD/svg10.dtd">
<svg version="1.0" xmlns="http://www.w3.org/2000/svg"
 width="3831.000000pt" height="3831.000000pt" viewBox="0 0 3831.000000 3831.000000"
 preserveAspectRatio="xMidYMid meet">
<metadata>
Created by potrace 1.16, written by Peter Selinger 2001-2019
</metadata>
<g transform="translate(0.000000,3831.000000) scale(0.100000,-0.100000)"
fill="#ffffff" stroke="none">
<path d="M18445 38303 c-3506 -124 -6915 -1216 -9851 -3156 -861 -568 -1685
-1217 -2474 -1946 -187 -174 -837 -824 -1011 -1011 -1890 -2045 -3274 -4382
-4149 -7011 -524 -1575 -825 -3160 -936 -4934 -21 -342 -30 -1450 -15 -1838
112 -2786 785 -5398 2027 -7867 1171 -2327 2763 -4340 4796 -6062 1173 -995
2610 -1925 4001 -2590 2395 -1145 4835 -1757 7482 -1878 285 -13 1396 -13
1680 0 1488 68 2890 288 4260 667 3575 989 6759 2973 9231 5753 1953 2197
3362 4786 4147 7625 379 1370 599 2772 667 4260 13 284 13 1395 0 1680 -70
1533 -309 3015 -715 4430 -1062 3703 -3190 6967 -6160 9451 -1655 1384 -3548
2483 -5585 3242 -1889 704 -3843 1095 -5905 1182 -210 9 -1268 11 -1490 3z
m1610 -372 c934 -51 1703 -140 2530 -292 3626 -669 6991 -2407 9640 -4980
1135 -1101 2085 -2276 2902 -3589 1038 -1667 1825 -3538 2288 -5435 285 -1166
435 -2196 516 -3525 17 -286 23 -1288 10 -1636 -80 -2083 -462 -3999 -1181
-5920 -1133 -3026 -3041 -5717 -5540 -7813 -2859 -2399 -6379 -3894 -10075
-4280 -761 -80 -1358 -106 -2194 -98 -561 6 -683 10 -1151 43 -3186 220 -6310
1281 -9000 3059 -1635 1081 -3128 2449 -4360 3996 -2382 2990 -3789 6629
-4040 10444 -50 764 -52 1669 -5 2420 126 1992 548 3894 1270 5720 1011 2557
2532 4813 4535 6724 2126 2028 4703 3530 7515 4381 1545 467 3100 725 4765
790 272 11 1324 4 1575 -9z"/>
<path d="M22351 34085 c-464 -1411 -841 -2568 -838 -2572 12 -12 1052 -350
1059 -344 3 3 174 517 379 1141 205 624 373 1136 374 1137 1 2 1956 -638 1963
-643 2 -1 -166 -516 -373 -1144 -207 -628 -375 -1144 -373 -1145 6 -6 1044
-345 1055 -345 6 0 41 89 77 198 315 950 1616 4916 1616 4925 0 15 -1050 362
-1060 350 -4 -4 -151 -442 -325 -973 -174 -531 -318 -966 -319 -968 -2 -2
-1956 637 -1963 642 -1 1 142 440 318 975 176 536 317 977 312 981 -7 6 -1043
350 -1055 350 -2 0 -383 -1154 -847 -2565z"/>
<path d="M16982 35405 c-212 -32 -365 -80 -524 -162 -241 -124 -386 -283 -531
-581 l-65 -132 -20 112 c-12 62 -33 183 -48 268 -15 85 -30 159 -34 163 -4 4
-228 -31 -499 -80 -458 -82 -491 -89 -491 -108 1 -25 696 -3904 701 -3909 3
-3 1018 174 1026 179 1 0 -87 500 -196 1111 -110 610 -205 1163 -211 1229 -33
329 39 585 214 761 138 138 319 211 551 221 142 6 204 -4 305 -53 147 -70 256
-223 315 -444 19 -72 465 -2520 465 -2554 0 -3 8 -6 18 -6 15 0 1035 180 1039
184 4 3 -490 2740 -508 2816 -138 557 -411 851 -899 967 -90 21 -134 25 -310
28 -143 3 -233 0 -298 -10z"/>
<path d="M12399 33925 c-241 -39 -436 -102 -674 -220 -548 -269 -887 -637
-1054 -1146 -91 -277 -106 -617 -40 -937 67 -326 247 -742 460 -1061 118 -177
182 -258 299 -377 319 -328 657 -479 1120 -503 409 -20 738 48 1105 229 529
262 880 620 1049 1072 83 224 121 449 113 671 -5 137 -32 286 -57 311 -5 5
-190 -87 -479 -239 l-471 -247 0 -65 c0 -182 -75 -363 -208 -505 -74 -78 -221
-180 -332 -231 -492 -223 -921 -88 -1223 384 l-36 57 1267 667 c697 367 1271
671 1275 675 19 17 -258 505 -391 690 -96 134 -334 372 -462 462 -114 81 -330
194 -455 238 -189 67 -279 82 -510 86 -147 2 -236 -1 -296 -11z m315 -930
c133 -37 250 -107 356 -215 62 -62 167 -197 159 -204 -11 -10 -1533 -809
-1548 -813 -14 -4 -22 10 -40 71 -38 128 -54 249 -47 371 6 136 26 215 78 323
106 217 388 416 678 478 82 17 282 11 364 -11z"/>
<path d="M7426 32388 l-366 -373 663 -664 c587 -587 658 -662 627 -657 -19 4
-101 9 -181 12 -380 17 -684 -109 -967 -400 -219 -226 -347 -443 -412 -701
-163 -644 78 -1325 700 -1977 422 -444 863 -687 1365 -754 160 -21 428 -14
567 16 336 71 620 249 857 537 139 167 223 325 272 510 30 112 38 376 15 531
-9 62 -19 120 -23 130 -3 9 80 -68 186 -173 l191 -190 360 360 360 360 -767
766 c-1545 1540 -3053 3034 -3067 3037 -7 2 -178 -165 -380 -370z m1384 -2340
c241 -58 499 -225 745 -479 148 -154 233 -269 310 -424 89 -178 119 -292 119
-450 1 -98 -4 -134 -23 -195 -43 -139 -114 -254 -226 -365 -277 -278 -591
-318 -975 -125 -173 87 -318 196 -495 374 -231 231 -367 449 -440 701 -81 279
-11 527 211 749 210 210 482 286 774 214z"/>
<path d="M28566 32445 c-358 -58 -732 -227 -1031 -464 -103 -81 -265 -242
-361 -356 -343 -409 -535 -844 -585 -1324 -16 -154 -6 -418 20 -539 104 -487
432 -916 980 -1284 236 -158 499 -271 736 -318 234 -46 467 -37 713 26 561
143 1051 509 1404 1049 240 365 361 725 388 1148 19 315 -28 570 -155 832
-268 553 -951 1085 -1560 1215 -132 28 -419 36 -549 15z m559 -990 c90 -24
233 -97 322 -164 294 -222 415 -505 358 -837 -53 -301 -263 -656 -570 -959
-411 -407 -843 -485 -1229 -223 -258 175 -400 404 -413 668 -6 118 5 206 42
336 111 384 514 888 867 1083 80 43 224 95 309 110 72 13 239 5 314 -14z"/>
<path d="M31509 28713 c-591 -395 -1093 -731 -1114 -748 -349 -262 -544 -479
-648 -718 -133 -309 -110 -642 66 -993 105 -210 230 -379 390 -530 145 -137
288 -215 532 -290 104 -32 138 -37 259 -43 l139 -6 -218 -145 c-119 -80 -222
-148 -227 -151 -12 -8 549 -852 562 -847 26 8 3319 2204 3320 2213 0 5 -129
204 -287 442 -197 297 -293 432 -303 430 -8 -2 -442 -289 -965 -636 -1016
-677 -1117 -738 -1319 -796 -336 -96 -627 20 -838 333 -105 155 -150 307 -129
436 24 152 128 295 321 445 48 36 546 371 1108 745 562 373 1022 683 1022 690
0 13 -580 886 -589 886 -3 0 -490 -323 -1082 -717z"/>
<path d="M17130 28810 l0 -110 -95 0 -95 0 0 100 0 100 -125 0 -125 0 0 -425
0 -425 -460 0 c-447 0 -461 -1 -480 -20 -11 -11 -20 -29 -20 -40 0 -12 -7 -35
-16 -53 -10 -18 -196 -212 -414 -432 -219 -220 -833 -861 -1365 -1425 -794
-841 -972 -1035 -991 -1078 -14 -29 -22 -57 -19 -61 16 -26 115 -31 636 -31
l542 0 -7 -1925 c-4 -1059 -9 -1932 -13 -1941 -9 -25 -51 -35 -112 -28 l-56 6
0 172 c0 166 -1 173 -27 226 -50 100 -128 127 -206 70 -23 -16 -47 -40 -54
-52 -8 -15 -14 -85 -18 -193 -7 -241 -1 -235 -236 -235 l-134 0 0 203 c0 221
-2 232 -60 262 -55 29 -209 12 -265 -29 -18 -13 -20 -30 -25 -201 l-5 -187
-29 -25 c-28 -24 -33 -24 -152 -21 -112 3 -125 5 -147 26 -24 23 -25 29 -28
176 -4 164 -11 187 -65 223 -36 23 -137 23 -164 -2 -11 -10 -20 -24 -20 -31 0
-7 -13 -33 -30 -56 -34 -48 -56 -135 -66 -250 l-6 -78 -137 0 -137 0 -18 106
c-26 150 -49 211 -107 284 -39 47 -48 64 -38 70 99 58 127 82 189 165 38 50
105 128 150 175 45 47 88 95 96 107 8 11 41 34 72 49 99 48 463 427 570 593
30 47 95 137 144 200 115 147 140 196 146 289 8 119 -31 187 -155 269 -165
109 -225 267 -268 698 -9 88 -25 199 -36 247 -30 129 -155 378 -190 378 -12 0
-23 16 -34 50 -9 27 -46 96 -82 152 -36 57 -76 119 -89 140 -17 27 -35 40 -73
53 -108 36 -200 176 -281 429 -39 122 -74 203 -142 336 -50 96 -124 256 -164
355 -60 148 -79 187 -113 220 -44 44 -65 87 -76 155 -14 92 -25 121 -51 130
-26 10 -44 45 -44 86 0 19 -35 61 -139 167 -76 78 -155 169 -176 202 -71 113
-102 145 -141 145 -68 0 -91 -22 -148 -143 -32 -68 -107 -193 -190 -316 -163
-243 -223 -357 -286 -551 -26 -80 -61 -180 -78 -222 -17 -42 -45 -143 -62
-225 -46 -219 -65 -288 -115 -414 -81 -201 -156 -306 -276 -385 -78 -52 -101
-86 -250 -380 -168 -331 -236 -558 -289 -954 -31 -236 -80 -325 -206 -376
-166 -67 -184 -192 -61 -433 36 -69 84 -171 107 -225 66 -156 165 -356 208
-421 22 -33 61 -81 88 -106 73 -70 279 -215 363 -257 70 -34 81 -37 165 -37
90 0 92 0 171 -47 44 -25 107 -54 140 -63 102 -29 288 -133 384 -214 l54 -45
-49 -11 c-104 -24 -118 -46 -133 -201 -14 -147 -28 -212 -51 -224 -10 -6 -91
-10 -179 -10 l-161 0 0 183 c0 156 -3 188 -19 222 -31 67 -86 105 -153 105
-23 0 -42 -11 -73 -42 -58 -59 -73 -115 -81 -309 l-6 -155 -170 0 -171 1 -21
28 c-19 26 -21 40 -19 150 3 162 -5 188 -81 265 -69 68 -94 76 -161 48 -41
-18 -50 -33 -64 -121 -6 -38 -24 -127 -38 -196 l-27 -127 -141 -5 c-165 -5
-184 0 -205 60 -12 36 -12 57 -2 138 14 110 6 143 -47 187 -17 15 -36 39 -41
54 -10 24 -14 26 -50 21 -22 -3 -56 -13 -77 -23 -35 -18 -40 -26 -66 -109 -26
-80 -30 -113 -39 -285 -5 -107 -8 -481 -6 -832 3 -625 3 -638 23 -658 l20 -20
11220 0 11220 0 26 29 27 29 7 448 c10 594 -1 1384 -20 1430 -35 84 -159 97
-253 27 -61 -46 -66 -66 -70 -290 l-4 -203 -204 0 -204 0 0 250 0 250 -27 6
c-16 3 -41 10 -57 15 -43 14 -93 11 -127 -7 -53 -27 -59 -59 -59 -304 l0 -220
-205 0 -205 0 0 195 c0 209 -5 237 -52 269 -28 20 -191 22 -228 3 -38 -19 -48
-68 -56 -269 l-6 -188 -185 0 -184 0 2 196 c2 221 0 227 -77 272 -65 37 -122
13 -165 -70 -17 -33 -19 -60 -19 -218 l0 -180 -120 0 -120 0 0 115 c0 62 5
137 11 165 13 63 57 115 107 131 27 8 49 27 82 73 100 135 149 183 268 265 66
44 157 114 202 156 96 88 151 127 215 155 39 17 50 28 67 68 15 36 32 55 62
74 25 15 67 58 101 104 32 43 105 127 161 185 85 88 110 122 149 200 49 97 87
156 178 271 28 37 84 129 122 205 l70 137 0 91 c0 73 -4 98 -22 130 -19 37
-202 224 -280 287 -30 25 -36 38 -67 175 -19 82 -50 191 -70 241 -68 177 -83
332 -46 477 26 101 25 141 -4 218 -13 34 -27 81 -30 103 -4 22 -17 57 -29 77
-29 48 -340 345 -443 424 -107 82 -119 97 -159 193 -53 128 -92 186 -182 267
-85 79 -103 108 -103 177 0 58 -15 107 -71 224 -97 206 -278 455 -469 642 -96
94 -134 140 -157 185 -22 46 -39 65 -72 84 -23 13 -44 22 -46 20 -2 -2 -31
-80 -65 -174 -34 -93 -101 -253 -150 -355 -48 -102 -107 -228 -130 -280 -57
-128 -88 -183 -190 -330 -48 -69 -125 -188 -171 -265 -118 -198 -330 -471
-581 -748 -54 -59 -116 -135 -138 -167 -158 -233 -228 -524 -250 -1043 -11
-264 2 -227 -140 -412 -97 -128 -112 -165 -113 -280 -1 -140 21 -191 168 -399
249 -352 259 -364 550 -611 116 -99 248 -214 294 -257 98 -91 158 -132 408
-279 100 -59 215 -134 255 -167 40 -33 111 -79 158 -102 152 -74 202 -146 220
-312 16 -155 31 -138 -125 -138 l-135 0 0 168 c0 92 -5 184 -11 206 -12 45
-81 124 -116 132 -14 4 -41 -1 -64 -11 -72 -33 -122 -173 -137 -385 l-7 -105
-147 -15 -148 -15 0 135 c0 151 -9 194 -67 323 -38 83 -41 84 -108 66 -56 -15
-104 -54 -126 -103 -16 -35 -19 -67 -19 -218 l0 -178 -200 0 -201 0 2 183 c2
157 0 187 -15 219 -24 49 -146 141 -187 141 -32 0 -81 -39 -104 -83 -15 -30
-33 -168 -43 -335 l-7 -120 -157 -3 -156 -2 -5 182 c-5 198 -13 241 -58 289
-37 40 -104 41 -142 3 -32 -32 -44 -68 -52 -164 -5 -67 -26 -207 -41 -282 l-6
-28 -99 0 -99 0 0 2140 0 2140 406 0 c341 0 405 2 401 14 -3 7 -259 353 -568
767 -589 790 -968 1300 -1009 1359 -53 77 -309 398 -364 457 -33 35 -78 75
-101 89 l-43 25 -2966 -1 -2966 0 0 404 c0 222 -3 418 -6 435 l-6 31 -114 0
-114 0 0 -84 c0 -46 -3 -98 -6 -115 l-6 -31 -104 0 -104 0 0 115 0 115 -115 0
-115 0 0 -110z m2620 -4390 l0 -270 -370 0 -370 0 0 270 0 270 370 0 370 0 0
-270z m880 0 l0 -270 -350 0 -350 0 0 270 0 270 350 0 350 0 0 -270z m-4120
-65 l0 -285 -370 0 -370 0 0 285 0 285 370 0 370 0 0 -285z m880 0 l0 -285
-345 0 -345 0 0 285 0 285 345 0 345 0 0 -285z m5280 40 l0 -245 -315 0 -315
0 0 245 0 245 315 0 315 0 0 -245z m970 0 l0 -245 -380 0 -380 0 0 245 0 245
380 0 380 0 0 -245z m-3890 -790 l0 -315 -370 0 -370 0 0 315 0 315 370 0 370
0 0 -315z m910 0 l0 -305 -360 0 -360 0 0 305 0 305 360 0 360 0 0 -305z
m-4150 -25 l0 -290 -370 0 -370 0 0 290 0 290 370 0 370 0 0 -290z m880 0 l0
-290 -345 0 -345 0 0 290 0 290 345 0 345 0 0 -290z m5300 0 l0 -290 -325 0
-325 0 0 290 0 290 325 0 325 0 0 -290z m950 0 l0 -290 -375 0 -375 0 0 290 0
290 375 0 375 0 0 -290z m-3550 -855 c352 -114 557 -364 615 -751 12 -83 15
-269 15 -1131 l0 -1033 -855 0 -855 0 0 1009 c0 627 4 1047 10 1110 35 342
215 615 495 751 138 67 200 80 355 76 114 -3 149 -8 220 -31z m2670 -1095 l0
-270 -340 0 -340 0 0 270 0 270 340 0 340 0 0 -270z m940 0 l0 -270 -365 0
-365 0 0 270 0 270 365 0 365 0 0 -270z m-7190 -170 l0 -310 -370 0 -370 0 0
310 0 310 370 0 370 0 0 -310z m900 0 l0 -310 -355 0 -355 0 0 310 0 310 355
0 355 0 0 -310z m-6517 -209 c40 -44 57 -93 57 -163 0 -46 -1 -47 -37 -58 -21
-7 -82 -14 -135 -17 l-98 -6 0 212 0 211 88 -69 c49 -39 105 -88 125 -110z
m700 -63 c-7 -99 -15 -183 -17 -185 -2 -2 -55 7 -117 21 -114 26 -149 45 -149
82 0 10 284 264 294 264 1 0 -4 -82 -11 -182z m11167 -373 l0 -265 -335 0
-335 0 0 265 0 265 335 0 335 0 0 -265z m940 0 l0 -265 -365 0 -365 0 0 265 0
265 365 0 365 0 0 -265z m-7170 -175 l0 -270 -373 0 -374 0 -6 113 c-4 61 -7
183 -7 270 l0 157 380 0 380 0 0 -270z m880 0 l0 -270 -355 0 -355 0 0 270 0
270 355 0 355 0 0 -270z m-8495 100 c16 -6 32 -24 42 -47 13 -33 15 -79 8
-363 -7 -335 -12 -369 -50 -384 -9 -3 -64 -6 -121 -6 -121 0 -156 12 -173 61
-7 21 -11 152 -11 385 l0 353 118 4 c64 1 127 4 139 5 12 1 33 -2 48 -8z m707
-17 c21 -12 37 -31 43 -54 7 -22 9 -156 7 -376 l-4 -343 -191 0 -192 0 1 364
c1 405 1 407 67 424 17 5 78 8 134 7 80 -2 108 -6 135 -22z m16231 0 c18 -9
36 -32 48 -59 19 -41 20 -64 17 -357 -3 -279 -5 -316 -21 -345 -27 -49 -69
-62 -193 -63 -116 0 -147 10 -164 57 -15 38 -13 717 2 749 13 29 27 34 118 38
89 4 160 -3 193 -20z m660 18 c38 -5 65 -14 79 -29 l21 -21 -10 -346 c-12
-391 -9 -377 -94 -425 -54 -30 -146 -34 -195 -7 -41 21 -93 74 -105 104 -5 13
-9 181 -9 373 l0 349 23 4 c36 7 228 6 290 -2z m717 -17 c12 -12 14 -48 12
-217 -4 -304 -19 -505 -40 -541 -41 -70 -123 -91 -193 -49 -19 11 -46 23 -61
27 l-28 6 0 361 c0 450 -8 426 145 431 96 4 147 -2 165 -18z m586 1 c11 -15
14 -85 14 -373 l0 -354 -29 -29 c-28 -28 -34 -29 -115 -29 -85 0 -87 0 -97 28
-37 96 -47 230 -39 531 4 191 8 202 72 235 47 24 174 18 194 -9z m546 -5 c16
-20 18 -51 18 -322 0 -207 -4 -313 -12 -341 -17 -58 -78 -119 -114 -115 -39 4
-60 40 -89 151 -23 91 -25 113 -25 346 0 227 2 251 18 272 35 42 172 49 204 9z
m601 15 c43 -18 47 -46 47 -383 0 -444 -5 -458 -163 -450 -99 5 -152 28 -182
79 -19 32 -20 54 -22 349 -1 181 3 328 8 347 12 38 29 53 72 64 36 9 212 5
240 -6z m750 -16 c15 -19 17 -51 16 -348 0 -225 -4 -337 -12 -361 -17 -49 -62
-70 -155 -70 -94 0 -132 18 -172 79 l-30 48 0 336 0 336 138 4 c172 4 193 2
215 -24z m690 0 c15 -19 17 -52 17 -349 l0 -328 -35 -31 c-32 -28 -60 -37
-105 -33 -8 1 -57 4 -109 6 -145 8 -135 -17 -139 354 -3 326 1 370 40 390 24
12 165 21 258 16 42 -2 59 -8 73 -25z m-20059 -50 l26 -31 0 -329 c0 -354 -2
-371 -52 -397 -24 -12 -112 -18 -210 -14 l-58 2 0 400 0 400 134 0 134 0 26
-31z m595 5 c19 -24 20 -39 20 -391 0 -237 -4 -373 -11 -388 -15 -33 -51 -44
-145 -43 l-82 2 -23 80 c-22 77 -23 94 -21 376 1 162 5 304 8 315 3 11 22 32
42 48 32 24 45 27 114 27 71 0 79 -2 98 -26z m624 15 c14 -6 30 -22 36 -36 18
-39 15 -647 -3 -707 -27 -88 -59 -102 -164 -71 -85 26 -82 10 -82 415 0 374 0
374 45 398 26 15 137 15 168 1z m604 3 c29 -18 33 -70 33 -395 0 -355 -2 -371
-50 -393 -16 -7 -60 -10 -117 -6 l-93 4 0 393 c0 215 3 395 7 398 9 10 205 8
220 -1z m700 -12 c50 -30 54 -62 51 -415 l-3 -315 -25 -24 c-23 -23 -33 -25
-137 -28 -133 -4 -151 5 -197 96 l-30 57 0 304 c-1 167 1 305 4 308 8 8 200
35 255 36 33 1 61 -6 82 -19z m710 -4 l28 -24 0 -357 0 -357 -24 -19 c-20 -16
-40 -19 -137 -19 l-113 0 -16 53 c-32 107 -37 178 -31 437 4 140 10 257 14
261 4 4 39 14 77 22 141 33 167 33 202 3z m502 -4 c28 -27 28 -30 35 -194 9
-197 -2 -498 -18 -520 -19 -25 -79 -58 -108 -58 -33 0 -64 31 -72 72 -10 52
-7 620 4 660 13 46 43 68 93 68 29 0 46 -7 66 -28z m11117 14 c18 -14 19 -33
25 -363 6 -378 3 -404 -46 -423 -14 -5 -52 -7 -85 -3 l-60 6 0 392 c0 215 3
395 7 398 13 13 139 7 159 -7z"/>
<path d="M5382 28118 c-137 -211 -212 -449 -212 -667 1 -189 43 -334 176 -609
82 -170 83 -173 51 -153 -87 53 -540 311 -546 311 -8 0 -484 -818 -495 -850
-4 -11 431 -267 1719 -1010 949 -547 1729 -996 1734 -998 8 -3 537 906 530
912 -2 1 -389 225 -859 496 -900 518 -976 564 -1106 665 -323 253 -421 542
-303 899 39 116 124 281 216 418 41 61 71 114 66 118 -14 13 -915 530 -923
530 -4 0 -26 -28 -48 -62z"/>
<path d="M34275 24594 c-141 -22 -260 -60 -390 -124 -335 -166 -477 -412 -526
-910 -9 -92 -9 -219 -3 -485 14 -563 12 -1102 -4 -1150 -35 -104 -116 -179
-226 -210 -201 -58 -378 116 -501 490 -109 328 -118 601 -27 769 40 72 139
157 252 216 97 49 99 51 90 78 -5 15 -70 239 -146 497 -75 259 -140 474 -145
479 -22 24 -271 -84 -415 -179 -263 -175 -463 -479 -536 -818 -19 -88 -22
-133 -22 -332 -1 -173 4 -257 17 -340 73 -452 236 -918 432 -1234 210 -337
499 -548 860 -627 120 -26 358 -24 492 5 262 55 442 149 600 314 270 282 364
690 319 1387 -23 353 -34 734 -26 865 10 169 60 256 174 306 166 74 349 -27
459 -253 92 -190 143 -404 134 -568 -11 -207 -105 -347 -294 -442 -35 -17 -63
-35 -63 -39 0 -8 202 -704 266 -916 l24 -82 83 35 c184 78 341 180 472 305
262 251 366 554 352 1033 -14 496 -185 1033 -439 1378 -298 405 -799 624
-1263 552z"/>
<path d="M4223 24480 c-162 -23 -308 -83 -432 -178 -175 -134 -400 -448 -531
-742 -251 -564 -325 -1188 -189 -1594 86 -258 250 -469 487 -627 164 -110 415
-227 431 -201 4 6 67 223 141 483 123 431 133 472 118 482 -10 7 -46 28 -80
47 -80 45 -197 155 -231 218 -81 149 -77 333 14 605 121 367 278 504 518 453
92 -19 152 -54 196 -114 58 -80 70 -135 69 -312 -1 -130 -8 -198 -43 -420 -64
-399 -71 -467 -78 -695 -7 -236 4 -361 42 -505 106 -395 367 -658 792 -800
195 -64 263 -75 473 -74 216 0 282 14 439 90 124 59 207 119 311 224 254 254
405 652 403 1060 -1 268 -71 528 -218 808 -30 56 -50 102 -45 102 5 0 53 -7
107 -15 61 -10 145 -15 223 -13 l124 3 148 515 c81 283 150 529 153 546 l7 30
-77 22 -77 21 -41 -40 c-50 -47 -107 -77 -167 -85 -102 -14 -230 19 -1588 407
-518 148 -981 276 -1029 284 -109 19 -290 26 -370 15z m1673 -1478 c183 -79
335 -204 401 -328 75 -141 115 -371 95 -548 -38 -324 -182 -525 -406 -567 -67
-12 -128 -6 -234 22 -186 49 -310 161 -363 328 -34 105 -36 304 -8 581 27 272
29 493 6 598 -10 40 -17 75 -17 77 0 9 449 -129 526 -163z"/>
<path d="M34205 20330 c-662 -40 -1123 -249 -1429 -650 -333 -434 -482 -939
-447 -1511 25 -398 112 -698 283 -977 61 -100 122 -177 222 -280 254 -262 508
-413 769 -457 l37 -6 0 534 0 534 -67 39 c-103 59 -239 200 -290 299 -78 153
-110 314 -100 508 13 262 92 464 241 624 101 108 211 179 361 230 76 26 273
63 336 63 l39 0 0 -922 c0 -508 3 -1156 7 -1440 l6 -518 211 0 c664 0 1051
101 1449 380 132 92 337 300 420 426 154 233 256 526 298 859 16 128 16 482 0
605 -42 317 -143 597 -299 831 -362 542 -923 809 -1742 832 -91 3 -228 1 -305
-3z m882 -1126 c275 -90 476 -268 553 -490 65 -184 73 -414 24 -609 -23 -91
-106 -252 -169 -328 -128 -154 -346 -263 -567 -284 l-68 -6 0 885 0 886 75
-14 c41 -8 109 -26 152 -40z"/>
<path d="M4935 19878 c-770 -50 -1402 -92 -1403 -93 -5 -4 136 -2227 141
-2232 5 -4 897 54 902 59 3 2 -13 278 -34 614 -22 335 -38 611 -35 613 8 9
182 -22 284 -51 135 -37 340 -138 450 -221 338 -256 513 -630 513 -1097 1
-309 -77 -560 -255 -827 -203 -304 -471 -477 -900 -582 -399 -98 -934 -118
-1328 -51 -391 67 -668 203 -910 449 -246 250 -364 537 -377 921 -20 583 229
1004 704 1190 81 32 99 43 102 62 5 34 -61 1072 -69 1081 -4 4 -68 -8 -142
-27 -459 -118 -817 -361 -1114 -758 -207 -275 -340 -612 -402 -1021 -25 -165
-24 -690 1 -872 104 -735 410 -1270 962 -1682 363 -271 798 -439 1320 -510
187 -25 759 -25 965 0 782 96 1322 341 1770 804 320 329 519 697 604 1113 36
178 46 292 46 517 0 501 -109 907 -331 1235 -78 114 -308 347 -462 468 -89 69
-105 86 -90 92 10 4 155 39 323 78 167 39 305 72 306 73 1 1 -9 160 -22 352
-13 193 -23 360 -24 373 0 20 -5 22 -47 21 -27 -1 -678 -42 -1448 -91z"/>
<path d="M30463 19404 l-91 -32 -12 29 c-7 16 -17 29 -23 29 -5 0 -43 -16 -84
-36 -61 -29 -77 -42 -89 -69 -20 -49 -18 -97 6 -118 20 -17 20 -17 -1 -69 -25
-63 -27 -149 -6 -198 8 -19 36 -60 62 -90 77 -89 77 -90 83 -396 5 -295 1
-324 -41 -303 -12 6 -33 22 -47 34 -44 40 -102 75 -125 75 -38 0 -49 -38 -41
-139 4 -50 13 -109 21 -131 32 -89 247 -375 291 -386 38 -10 102 4 155 33 43
23 49 31 74 98 18 50 43 92 80 136 74 86 122 187 146 304 11 52 24 106 29 120
18 46 -27 95 -86 95 -38 0 -39 -1 -104 -122 -51 -97 -80 -123 -80 -72 0 14 5
92 12 172 9 115 8 175 -2 279 l-12 133 27 55 c14 30 53 82 86 115 32 33 59 67
59 76 0 9 -16 31 -36 50 -35 31 -36 35 -30 81 19 135 18 177 -3 211 -24 37
-77 72 -106 71 -11 -1 -61 -16 -112 -35z"/>
<path d="M25967 19408 c-18 -6 -41 -33 -69 -80 -26 -44 -61 -85 -92 -110 -75
-58 -86 -84 -86 -198 0 -90 -2 -99 -31 -146 -17 -27 -52 -71 -78 -99 -34 -36
-62 -85 -105 -179 -31 -70 -62 -139 -67 -152 -8 -24 -11 -24 -88 -18 l-80 7
-20 -34 c-13 -20 -21 -51 -21 -76 0 -64 103 -331 162 -419 54 -81 168 -193
260 -253 52 -35 68 -41 115 -41 58 0 107 19 122 48 12 22 40 202 51 322 9 103
2 127 -52 178 l-24 22 -55 -49 c-30 -27 -63 -65 -74 -85 -29 -54 -39 -44 -31
34 21 228 108 505 198 633 l20 28 23 -26 c56 -59 139 -19 253 123 42 53 96
110 119 127 23 16 45 40 48 51 9 30 -37 116 -93 177 -65 69 -250 227 -265 226
-6 0 -24 -5 -40 -11z"/>
<path d="M21018 19253 c-80 -82 -99 -192 -53 -292 14 -29 45 -82 70 -118 56
-80 45 -87 -56 -36 -114 58 -187 48 -204 -28 -8 -34 9 -64 98 -183 84 -111
272 -332 299 -350 12 -9 37 -16 55 -16 38 0 48 13 93 120 17 41 72 157 122
258 51 103 88 189 84 198 -15 39 -163 59 -216 29 -36 -21 -40 -19 -40 20 0 46
24 69 94 89 31 9 56 20 56 25 0 9 -47 264 -55 299 -5 22 -8 22 -158 22 l-153
0 -36 -37z"/>
<path d="M17924 19172 c-127 -93 -198 -265 -147 -362 21 -40 75 -80 109 -80
18 0 25 -7 30 -27 11 -48 41 -88 84 -112 42 -24 83 -78 133 -177 14 -28 23
-54 20 -58 -13 -13 -66 -5 -125 20 -75 31 -111 25 -145 -25 -38 -57 -31 -99
27 -168 53 -62 170 -271 190 -339 18 -60 48 -94 91 -100 l37 -6 28 77 c24 65
42 92 102 158 77 84 112 142 132 217 6 25 13 52 16 61 3 9 18 22 34 29 43 18
50 52 50 261 l0 189 -49 0 -49 0 -43 -115 c-23 -64 -45 -118 -49 -120 -3 -2
-19 13 -35 33 -25 31 -30 46 -30 97 0 33 8 88 19 121 18 61 18 63 -2 165 -11
57 -23 126 -26 152 -3 26 -10 56 -16 67 -21 39 -100 46 -266 24 -36 -5 -41 -3
-52 20 -15 33 -20 32 -68 -2z"/>
<path d="M27466 19150 c-105 -33 -136 -81 -136 -212 0 -45 -5 -107 -12 -138
-20 -101 9 -170 97 -227 159 -101 179 -134 195 -323 6 -69 13 -144 16 -167 5
-36 4 -43 -11 -43 -9 0 -34 13 -54 29 -63 50 -120 75 -173 74 -46 -1 -98 -23
-98 -43 0 -10 237 -407 303 -507 30 -46 48 -64 70 -69 72 -16 268 135 367 283
27 41 50 79 50 84 0 5 20 61 45 124 27 68 48 139 52 176 l6 62 -39 -6 c-106
-18 -111 -21 -181 -130 -36 -56 -69 -106 -73 -111 -5 -4 -21 2 -37 13 l-29 22
30 62 c27 54 31 71 31 147 0 61 -5 94 -17 119 -16 30 -16 36 -3 54 20 29 19
56 -5 92 -29 43 -25 59 20 95 75 59 93 140 50 222 -11 22 -32 80 -44 128 -39
145 -47 152 -177 155 -85 2 -139 19 -139 45 0 14 -37 11 -104 -10z"/>
<path d="M12620 19083 c-40 -7 -77 -51 -111 -132 -42 -100 -82 -178 -113 -220
-14 -19 -26 -46 -26 -59 0 -39 107 -141 206 -198 101 -57 157 -103 173 -142 6
-15 33 -114 60 -219 l49 -193 -85 0 c-69 0 -93 -4 -124 -22 -39 -21 -39 -22
-39 -82 0 -111 21 -170 82 -234 68 -71 104 -125 156 -228 42 -83 63 -101 102
-86 10 4 96 84 192 177 229 223 223 210 222 500 -1 224 -3 233 -57 299 l-23
29 -70 -82 c-68 -80 -69 -81 -86 -61 -9 11 -35 77 -57 145 -29 89 -53 143 -85
191 -26 36 -46 77 -46 91 0 29 19 68 72 145 21 32 41 70 44 86 5 25 0 34 -38
64 -23 20 -95 70 -158 112 -63 42 -126 85 -140 95 -28 22 -63 30 -100 24z"/>
<path d="M15643 18900 c-53 -12 -96 -44 -117 -86 -21 -40 -22 -40 -67 -36 -25
2 -56 -1 -68 -7 -28 -16 -101 -173 -101 -220 0 -34 12 -48 200 -233 177 -173
204 -204 230 -261 40 -88 70 -201 70 -261 l0 -49 -42 46 c-35 37 -52 46 -89
52 -25 4 -57 5 -70 3 -23 -3 -24 -7 -23 -68 0 -69 40 -189 110 -335 33 -68 34
-74 34 -192 l0 -122 68 6 c37 3 79 12 93 19 15 7 61 50 103 95 144 155 256
426 256 617 0 73 -10 132 -22 132 -5 0 -40 -18 -78 -40 -38 -22 -71 -40 -74
-40 -3 0 -6 19 -6 43 0 71 -27 156 -90 283 -33 67 -60 130 -60 140 0 11 7 30
16 43 25 35 21 91 -10 143 -14 25 -33 69 -42 99 -9 30 -39 96 -67 146 -50 90
-53 93 -87 92 -19 -1 -49 -4 -67 -9z"/>
<path d="M24031 18834 c-31 -26 -60 -100 -76 -192 -5 -29 -20 -58 -47 -89
l-40 -47 6 -70 c3 -39 8 -104 12 -144 8 -90 -6 -147 -55 -232 -21 -36 -48 -94
-61 -130 -19 -54 -32 -79 -66 -128 -5 -8 -64 37 -94 71 -31 36 -36 38 -84 35
l-51 -3 3 -75 c3 -85 19 -174 36 -207 23 -45 477 -452 560 -502 66 -39 106
-37 154 7 l30 28 7 168 c9 192 3 266 -25 351 -33 97 -29 95 -109 42 -39 -26
-73 -47 -76 -47 -3 0 -5 77 -5 172 l0 172 73 71 c39 39 86 78 103 85 31 13 32
17 36 81 3 60 7 71 40 107 42 47 50 79 46 177 l-3 70 -41 3 -42 3 1 72 c1 56
-3 81 -19 107 -40 71 -154 94 -213 44z"/>
<path d="M8276 18786 c-73 -27 -88 -53 -97 -158 -4 -51 -8 -94 -8 -95 -1 0
-16 -19 -35 -42 -39 -46 -52 -109 -41 -192 6 -45 14 -58 56 -99 67 -65 96
-133 109 -256 6 -54 13 -114 16 -132 7 -39 -17 -111 -46 -137 -15 -14 -20 -31
-20 -74 0 -79 6 -94 48 -116 27 -15 46 -38 72 -86 33 -63 193 -268 289 -371
35 -39 50 -48 77 -48 32 0 35 4 73 83 54 113 131 364 131 428 0 61 -21 104
-60 124 -64 33 -109 11 -146 -73 -30 -69 -50 -92 -79 -92 -45 0 -54 18 -70
155 -8 72 -15 164 -15 205 0 77 -7 114 -35 188 -23 65 -8 109 69 191 35 37 69
78 76 91 18 34 18 223 1 285 -18 61 -89 136 -146 155 -21 7 -56 25 -79 41 -51
36 -90 43 -140 25z"/>
<path d="M22351 18594 c-35 -18 -67 -61 -78 -104 -3 -14 -16 -39 -29 -57 -83
-111 -95 -194 -44 -301 l30 -64 0 -264 c0 -145 -1 -264 -2 -264 -2 0 -44 11
-95 24 -51 13 -94 21 -98 18 -3 -3 -5 -39 -5 -81 0 -99 20 -140 140 -300 112
-147 222 -267 293 -317 29 -20 73 -59 99 -85 37 -40 52 -49 80 -49 40 0 64 22
98 90 42 83 60 151 60 225 0 59 4 77 22 100 12 16 23 47 26 75 8 91 -46 269
-96 313 -23 21 -72 16 -92 -8 -6 -8 -26 -54 -44 -104 l-32 -91 -22 45 c-13 28
-22 64 -22 94 0 28 -9 69 -22 97 -19 44 -21 64 -20 198 2 124 6 155 21 180 16
28 22 31 64 28 51 -3 100 17 117 48 5 10 29 74 52 142 35 103 42 136 42 205 1
75 -1 85 -29 125 l-31 43 -84 5 c-54 4 -98 13 -119 24 -50 26 -138 31 -180 10z"/>
<path d="M29075 18385 c-25 -9 -57 -34 -87 -67 -45 -50 -50 -53 -98 -54 -78
-1 -120 -54 -139 -174 -17 -102 -2 -150 70 -228 76 -83 130 -173 165 -277 25
-72 28 -97 32 -255 5 -203 -8 -310 -38 -310 -14 0 -23 14 -35 56 -30 105 -61
163 -90 170 -37 9 -74 -20 -105 -82 -22 -43 -25 -62 -25 -154 0 -133 7 -146
164 -328 168 -193 180 -204 227 -200 36 3 42 8 97 88 32 47 70 108 84 135 14
28 33 55 43 62 21 15 107 162 126 216 23 64 40 269 26 315 -14 47 -60 92 -97
95 -27 2 -29 -1 -59 -99 -17 -56 -35 -102 -41 -104 -6 -1 -17 55 -27 132 -9
73 -23 170 -32 216 -27 144 10 245 105 285 64 27 91 85 87 185 -3 63 -5 68
-33 81 -53 24 -76 54 -131 168 -69 143 -95 161 -189 128z"/>
<path d="M17009 18062 c-32 -28 -34 -34 -34 -94 0 -64 -1 -65 -53 -124 -83
-92 -104 -134 -110 -218 -4 -63 -1 -78 21 -122 40 -78 112 -134 173 -134 23 0
24 -3 24 -57 0 -32 7 -101 15 -153 20 -127 20 -240 1 -240 -8 0 -44 13 -80 30
l-66 29 -15 -37 c-31 -74 -38 -123 -31 -231 3 -58 11 -124 16 -146 6 -22 19
-84 30 -138 22 -111 50 -169 95 -197 41 -25 106 -35 134 -21 28 16 71 84 71
115 0 27 10 39 154 201 217 243 272 360 264 557 -2 53 -6 99 -9 102 -2 3 -23
8 -46 12 l-41 6 -119 -112 -118 -113 -3 238 c-3 263 3 308 49 422 25 64 30 88
27 136 -5 66 -28 96 -115 153 -51 32 -53 36 -53 77 0 58 -23 79 -94 85 -48 4
-56 1 -87 -26z"/>
<path d="M9830 18030 c-11 -11 -22 -30 -25 -42 -26 -119 -35 -166 -45 -248 -7
-52 -18 -115 -26 -140 -28 -91 -14 -132 67 -194 54 -41 64 -62 145 -308 58
-177 58 -177 41 -212 -11 -24 -23 -36 -37 -36 -44 0 -60 -18 -60 -66 0 -54 19
-136 34 -146 6 -4 24 -8 39 -8 40 0 250 -207 269 -265 9 -28 29 -51 71 -84 51
-39 61 -44 85 -35 24 8 30 19 49 96 20 82 53 423 53 556 0 43 5 57 30 86 30
33 31 37 28 120 l-3 86 -50 0 c-55 0 -104 -24 -129 -62 -8 -13 -28 -60 -44
-105 -51 -140 -50 -140 -110 -8 -90 199 -116 310 -98 428 l7 45 38 -5 c37 -5
40 -4 66 41 25 43 26 48 11 59 -15 11 -16 20 -5 77 21 114 22 165 5 199 -19
36 -62 61 -108 61 -40 0 -50 7 -65 42 -16 36 -52 58 -121 74 -76 18 -89 17
-112 -6z"/>
<path d="M26794 17718 c-32 -24 -154 -158 -154 -169 0 -4 -24 -22 -52 -40 -96
-59 -136 -108 -153 -188 -7 -32 -4 -36 108 -146 95 -94 118 -122 132 -164 31
-95 45 -220 45 -416 0 -172 -2 -193 -20 -222 -23 -38 -20 -37 -65 -19 -24 10
-39 26 -50 52 -20 48 -29 54 -87 54 l-47 0 -7 -45 c-3 -25 -4 -87 -2 -138 4
-83 9 -101 49 -187 40 -86 44 -102 44 -172 0 -46 5 -82 12 -89 6 -6 43 -14 81
-17 l70 -5 137 83 c149 89 245 172 296 253 19 29 40 56 49 61 42 27 111 103
139 156 28 52 68 196 58 206 -10 11 -216 -65 -303 -112 -56 -30 -105 -54 -108
-54 -13 0 -5 52 12 83 15 27 18 70 22 302 6 298 4 284 79 400 62 95 63 132 4
199 -41 47 -65 102 -79 181 -24 142 -126 215 -210 153z"/>
<path d="M14393 17628 c-18 -13 -64 -60 -103 -105 -51 -59 -84 -88 -120 -105
-43 -20 -50 -27 -55 -60 -5 -26 0 -56 14 -98 12 -33 21 -69 21 -80 0 -39 38
-97 75 -114 19 -9 35 -20 35 -24 1 -4 9 -99 19 -212 10 -113 17 -206 17 -206
-1 -1 -24 3 -51 9 -128 26 -214 -46 -175 -147 5 -13 34 -49 65 -78 31 -29 72
-78 90 -108 58 -95 203 -218 355 -302 33 -18 60 -39 60 -47 0 -11 12 -12 57
-7 31 4 59 8 60 10 2 2 13 79 23 172 12 102 28 190 40 222 37 95 19 174 -50
220 -59 39 -91 22 -171 -91 -43 -62 -49 -66 -53 -45 -3 12 -20 116 -37 229
l-31 207 20 20 c11 11 29 40 40 64 24 54 43 70 79 66 28 -3 29 -1 80 147 29
83 52 158 52 167 1 16 -107 149 -211 261 -62 65 -92 72 -145 35z"/>
<path d="M11564 17395 c-68 -60 -94 -110 -94 -178 0 -23 -7 -80 -15 -127 -28
-159 -15 -241 50 -314 20 -21 38 -50 42 -65 3 -14 30 -114 58 -221 l52 -195
-63 -5 c-79 -6 -124 -42 -124 -98 0 -31 13 -49 123 -160 142 -144 234 -223
371 -317 79 -55 108 -69 145 -73 42 -4 48 -2 58 21 6 14 24 103 39 198 19 126
32 181 45 198 31 39 59 111 59 150 0 20 -11 65 -23 101 l-23 65 -82 3 c-101 3
-143 -13 -175 -69 -22 -39 -42 -54 -58 -43 -5 3 -9 12 -9 20 0 8 -20 64 -45
124 -25 60 -48 134 -51 167 -4 32 -14 63 -22 69 -12 9 -9 13 18 24 47 20 124
99 155 160 26 51 27 60 23 155 -8 168 -53 240 -199 316 -64 33 -89 53 -120 96
-22 29 -47 53 -57 53 -9 0 -45 -25 -78 -55z"/>
<path d="M25177 16812 c-11 -12 -22 -48 -28 -86 -12 -89 -31 -130 -84 -187
-47 -50 -62 -94 -52 -156 8 -47 32 -82 65 -94 46 -18 93 -60 109 -98 11 -26
18 -95 24 -241 4 -112 7 -205 6 -206 -1 0 -64 9 -139 21 -159 24 -154 27 -137
-77 16 -99 54 -157 134 -207 28 -18 79 -63 115 -100 64 -69 78 -76 173 -96 15
-3 64 -37 108 -76 44 -39 83 -68 86 -65 10 10 52 275 53 327 0 26 -9 75 -19
110 -11 35 -27 96 -36 134 -13 57 -23 78 -55 110 -45 46 -61 100 -53 179 5 48
8 52 44 68 44 19 79 69 79 113 0 17 -9 64 -20 105 -27 103 -27 105 25 125 62
23 79 52 78 131 -1 79 -19 111 -68 119 -19 3 -50 7 -68 10 -18 3 -56 20 -85
38 -28 17 -78 49 -111 70 -76 48 -119 57 -144 29z"/>
<path d="M18437 16738 c-3 -13 -9 -48 -12 -79 l-7 -57 -62 43 c-33 23 -75 50
-93 59 -32 16 -32 16 -48 -13 -8 -17 -15 -40 -15 -52 0 -11 30 -84 67 -161
l67 -140 -24 -19 c-14 -10 -30 -19 -36 -19 -6 0 -38 -14 -72 -31 -90 -44 -147
-125 -175 -247 -14 -59 -19 -65 -178 -231 -90 -94 -172 -186 -181 -203 -25
-46 -24 -140 3 -195 29 -59 151 -171 196 -179 50 -9 97 16 123 66 11 22 45 60
75 83 46 35 55 47 55 74 0 44 39 73 96 73 77 0 142 20 185 56 52 43 77 49 124
30 59 -25 177 -150 213 -227 68 -143 98 -361 89 -654 -10 -334 -51 -448 -237
-660 -47 -53 -139 -172 -205 -263 -103 -143 -127 -169 -169 -191 l-49 -25
-101 52 c-111 57 -214 139 -403 323 -126 124 -185 157 -317 185 -130 27 -214
4 -307 -83 -72 -67 -109 -147 -109 -235 0 -37 4 -77 9 -91 l9 -23 189 26 c103
15 192 25 196 23 4 -3 60 -66 124 -141 64 -76 188 -209 277 -297 319 -318 609
-526 1001 -716 361 -175 710 -278 1135 -336 194 -26 763 -26 965 0 696 91
1355 345 1776 685 100 81 235 223 282 297 56 90 343 568 401 668 92 160 130
210 180 242 l48 29 174 -3 c96 -1 174 2 174 7 0 8 -40 127 -54 163 -4 9 -70
46 -147 84 l-139 67 -67 -12 c-124 -21 -343 -100 -387 -138 -10 -9 -34 -39
-51 -67 -18 -27 -54 -72 -80 -99 -45 -46 -68 -89 -155 -283 -13 -29 -29 -53
-36 -53 -6 0 -39 18 -73 41 -58 38 -61 43 -61 81 0 36 -6 45 -71 106 -56 52
-80 85 -111 147 -35 71 -80 133 -219 298 -53 62 -103 87 -174 87 l-55 0 0 214
0 214 -37 78 c-35 75 -37 84 -41 199 -3 104 -1 125 16 155 35 63 136 97 206
70 43 -16 56 -57 56 -173 0 -128 10 -160 57 -182 28 -13 41 -30 64 -80 38 -85
165 -216 225 -233 44 -13 242 -15 284 -3 58 16 24 79 -106 198 -79 71 -100 99
-182 235 -132 220 -153 277 -163 458 -9 155 -28 246 -74 343 l-26 57 -46 0
c-85 0 -123 -45 -283 -335 -46 -82 -84 -151 -84 -152 -1 -1 -38 9 -81 23 -222
71 -326 94 -424 94 -171 0 -275 -17 -416 -65 -150 -51 -432 -127 -554 -149
-109 -21 -362 -21 -466 -1 -42 8 -100 25 -128 38 -60 28 -173 111 -187 137
-11 20 -125 105 -180 133 -19 10 -64 54 -100 98 -82 102 -141 155 -227 207
-37 22 -99 66 -138 96 -50 41 -97 67 -165 93 -52 20 -100 41 -106 47 -6 6 -44
84 -85 173 l-74 162 -41 1 c-35 0 -43 -4 -47 -22z m2905 -2288 c30 -11 95 -53
148 -95 127 -101 207 -140 352 -170 237 -50 311 -100 390 -265 22 -47 77 -145
122 -219 88 -145 99 -189 60 -233 -37 -42 -218 -180 -342 -262 -204 -134 -359
-217 -589 -314 -804 -343 -1597 -354 -2268 -31 -205 98 -447 261 -605 406
l-64 60 43 73 c57 96 85 126 275 292 180 158 187 165 221 228 42 81 155 173
278 230 l62 28 375 17 c526 23 625 31 790 64 140 28 295 80 520 175 99 42 154
45 232 16z"/>
<path d="M29905 16488 c-38 -21 -85 -72 -96 -105 -6 -18 -8 -50 -4 -71 3 -22
0 -57 -9 -87 -9 -27 -18 -75 -22 -106 -8 -67 5 -95 71 -159 64 -62 78 -92 70
-149 -11 -79 -45 -200 -84 -305 -21 -56 -41 -118 -45 -139 -4 -21 -12 -37 -18
-35 -6 2 -38 47 -70 98 -33 52 -68 104 -79 115 -20 20 -20 20 -55 -18 l-34
-37 5 -83 c9 -121 23 -214 45 -287 10 -36 29 -135 40 -220 21 -153 31 -180 65
-180 11 0 114 105 226 230 53 59 59 62 94 58 35 -4 40 -1 74 45 27 37 54 58
111 87 122 62 139 92 140 251 0 127 -25 125 -182 -18 -51 -47 -75 -63 -97 -63
-17 0 -32 3 -34 8 -3 4 37 115 88 247 l92 239 78 26 c87 29 108 48 130 123 24
82 20 122 -16 154 -26 23 -30 33 -24 58 3 16 11 68 17 114 13 99 15 96 -106
144 -160 64 -321 93 -371 65z"/>
<path d="M23783 16420 c-28 -11 -133 -144 -193 -242 -39 -64 -44 -81 -48 -143
-5 -95 10 -144 63 -206 25 -29 45 -63 45 -75 0 -21 -57 -140 -85 -177 -13 -18
-17 -18 -116 13 -108 33 -118 32 -119 -16 0 -39 202 -463 263 -554 17 -25 55
-72 85 -105 30 -33 76 -92 102 -131 31 -45 60 -76 79 -84 35 -14 114 -6 129
13 8 10 82 599 82 650 0 14 -9 17 -47 17 -71 -1 -105 -26 -147 -107 -9 -18
-20 -33 -25 -33 -5 0 -19 26 -32 58 -31 75 -34 236 -6 293 26 52 76 101 97 94
31 -10 69 13 89 54 11 21 39 61 62 88 79 90 94 159 64 278 -21 81 -66 152
-155 246 -73 77 -76 79 -120 78 -25 0 -55 -4 -67 -9z"/>
<path d="M28200 16163 c-8 -3 -31 -21 -51 -40 -32 -30 -46 -36 -109 -44 -103
-13 -160 -53 -196 -138 -18 -44 -18 -132 1 -206 24 -90 131 -288 189 -347 l48
-50 -6 -116 c-9 -163 -16 -213 -31 -218 -6 -3 -41 24 -76 59 -46 45 -78 68
-114 81 -51 17 -175 34 -175 23 0 -3 26 -75 59 -159 66 -173 120 -286 163
-340 16 -21 40 -63 52 -95 41 -106 103 -119 193 -39 26 23 72 56 102 72 30 16
76 48 102 72 46 41 99 128 99 163 0 10 8 20 18 23 43 14 171 258 172 327 0 54
-74 128 -114 113 -9 -3 -23 -31 -32 -60 -11 -40 -30 -70 -71 -115 -31 -33 -57
-58 -59 -56 -2 2 -9 30 -14 63 -6 32 -20 80 -30 106 -55 129 -2 251 139 323
73 37 80 71 26 136 -56 66 -83 118 -124 240 -40 120 -71 188 -93 206 -18 15
-50 22 -68 16z"/>
<path d="M15855 16144 c-27 -7 -88 -18 -134 -23 -94 -10 -124 -26 -158 -87
-17 -29 -23 -55 -23 -104 0 -81 18 -113 98 -175 70 -54 81 -75 92 -173 9 -85
25 -108 81 -117 95 -16 107 -54 108 -326 1 -131 -2 -169 -13 -178 -11 -10 -16
-2 -26 41 -22 92 -39 125 -72 139 -45 18 -80 -6 -91 -63 -13 -72 -2 -482 17
-583 22 -124 25 -135 34 -135 4 0 52 36 107 81 55 44 129 96 165 114 77 39
113 76 170 170 23 39 54 84 69 100 28 31 111 235 111 273 0 26 -73 72 -115 72
-15 0 -42 -9 -60 -20 -38 -23 -47 -17 -64 45 -14 49 -41 264 -41 321 0 28 13
68 37 119 62 130 56 211 -22 294 -52 56 -61 73 -69 133 -4 26 -16 58 -27 72
-18 22 -28 26 -72 25 -29 0 -74 -7 -102 -15z"/>
<path d="M9280 15823 c-8 -3 -27 -14 -42 -24 -33 -24 -47 -24 -78 1 -54 42
-136 15 -169 -55 -44 -93 -35 -204 24 -295 21 -32 37 -71 40 -99 3 -25 12 -75
20 -111 13 -57 20 -70 64 -110 l49 -45 71 -260 c39 -143 71 -265 71 -270 0 -6
-48 -19 -107 -30 -164 -28 -164 -42 -9 -193 117 -113 110 -109 326 -211 19 -9
78 -58 131 -108 102 -99 124 -108 160 -72 48 48 71 125 80 259 5 70 18 186 29
258 23 151 24 188 7 222 -13 26 -71 70 -92 70 -7 0 -50 -49 -95 -110 -45 -60
-86 -110 -90 -110 -17 0 -90 162 -135 300 -27 80 -63 176 -82 215 -18 38 -33
80 -33 92 0 29 31 57 78 71 59 18 77 58 76 167 0 110 -24 192 -92 320 -41 78
-53 93 -92 113 -43 21 -79 26 -110 15z"/>
<path d="M11411 15221 c-12 -17 -48 -84 -78 -149 -31 -64 -68 -135 -82 -157
-39 -59 -51 -91 -51 -138 0 -56 26 -96 98 -152 32 -25 66 -61 75 -80 9 -19 41
-118 71 -220 l54 -185 -33 0 c-45 0 -94 -19 -105 -40 -19 -35 -11 -132 14
-185 66 -143 232 -259 486 -340 125 -40 157 -41 215 -5 58 36 75 87 75 226 0
140 -12 221 -46 324 -37 110 -85 183 -141 214 -25 14 -47 26 -49 26 -2 0 -11
-17 -20 -37 -12 -27 -17 -63 -16 -125 1 -48 -3 -90 -7 -93 -9 -5 -126 187
-196 320 l-36 71 17 43 c14 34 25 47 59 61 50 22 79 57 134 165 61 119 56 199
-16 267 -43 40 -332 209 -368 215 -27 4 -35 1 -54 -26z"/>
<path d="M26224 15181 c-19 -11 -39 -37 -52 -68 -27 -63 -62 -256 -62 -344 0
-75 4 -79 86 -79 l42 0 -4 -107 c-3 -60 -7 -136 -10 -171 -5 -59 -7 -62 -27
-56 -33 10 -108 51 -138 75 -35 28 -64 18 -89 -31 -38 -75 -25 -143 46 -240
48 -67 50 -88 18 -151 -24 -45 -28 -66 -28 -124 1 -75 33 -179 62 -202 29 -24
74 -15 127 25 50 38 63 55 90 125 12 31 24 42 67 61 62 28 234 178 296 258 23
30 53 82 66 114 13 32 45 101 70 153 25 52 46 105 46 119 0 30 -26 85 -51 108
-33 30 -86 -4 -210 -135 l-109 -116 0 147 0 146 90 7 c50 4 90 9 90 10 0 2
-12 35 -26 73 l-25 69 21 128 c11 70 19 129 18 130 -2 1 -69 23 -150 49 -160
50 -207 56 -254 27z"/>
<path d="M13433 14916 c-72 -32 -113 -163 -113 -364 0 -138 10 -173 59 -215
28 -23 42 -27 95 -27 55 0 65 -3 88 -27 31 -33 52 -102 73 -240 8 -57 15 -105
15 -108 0 -14 -45 -1 -115 35 -67 34 -88 40 -139 39 -34 0 -78 -6 -99 -12
l-38 -12 50 -100 c63 -126 109 -172 214 -215 87 -36 133 -68 337 -235 157
-128 195 -151 233 -141 34 8 67 64 67 113 0 22 9 66 20 98 24 70 25 106 4 146
-14 28 -14 34 2 67 21 42 29 153 20 245 -6 51 -13 70 -41 102 l-33 40 -43 -31
c-29 -20 -58 -56 -86 -103 -35 -62 -43 -70 -51 -54 -18 34 -51 152 -71 256
-11 57 -25 116 -31 131 -5 15 -10 32 -10 37 0 21 50 59 77 59 25 0 31 7 51 55
36 91 32 107 -38 150 l-60 36 0 66 c0 62 -2 67 -35 99 -43 40 -126 62 -173 46
-25 -8 -33 -7 -43 4 -18 22 -90 61 -124 68 -17 3 -44 -1 -62 -8z"/>
<path d="M28698 14101 c-135 -6 -158 -14 -200 -72 -49 -67 -51 -356 -2 -450 8
-16 28 -32 48 -39 19 -6 37 -18 40 -26 25 -64 -35 -431 -78 -481 -21 -25 -23
-25 -79 -13 -31 6 -59 14 -61 18 -2 4 1 29 7 56 10 43 9 50 -8 62 -48 35 -102
9 -142 -69 -36 -72 -41 -157 -14 -269 21 -89 121 -366 147 -405 18 -29 74 -44
117 -32 18 5 84 55 157 119 69 61 172 143 230 181 119 80 126 90 193 289 66
193 70 303 15 366 -53 60 -120 33 -132 -53 -4 -33 -34 -99 -94 -210 -48 -90
-91 -163 -97 -163 -5 0 -11 20 -13 45 -2 35 2 52 22 77 45 60 49 84 56 303 7
249 9 257 100 306 78 41 103 76 108 149 3 44 -1 66 -17 98 -12 24 -26 74 -31
114 -5 39 -15 78 -24 86 -18 18 -77 22 -248 13z"/>
<path d="M24760 13957 c-19 -7 -55 -27 -79 -45 -51 -37 -139 -72 -183 -72 -18
0 -69 5 -114 12 -136 20 -249 -19 -355 -123 -131 -128 -176 -376 -100 -561 18
-44 31 -94 31 -118 0 -36 -6 -48 -41 -83 -91 -91 -107 -132 -88 -227 l12 -60
109 0 c132 0 158 9 241 88 73 70 94 82 141 82 20 0 64 11 99 24 69 26 176 51
184 43 2 -3 -25 -57 -62 -121 -104 -182 -108 -195 -100 -415 3 -102 13 -237
22 -299 17 -111 17 -114 -5 -204 -13 -50 -29 -168 -38 -262 -19 -205 -25 -234
-61 -267 -37 -34 -208 -98 -281 -105 -46 -5 -72 -1 -132 20 -52 18 -119 30
-220 40 -129 12 -165 20 -320 71 -206 67 -297 79 -534 68 l-148 -6 6 41 c3 23
9 59 12 80 3 21 21 61 40 87 19 27 34 55 34 63 0 8 9 53 21 101 27 111 23 176
-18 261 -33 70 -125 182 -193 236 -69 54 -94 54 -259 -1 -208 -70 -346 -140
-408 -209 -67 -73 -76 -109 -77 -312 l-1 -165 42 -37 c23 -20 70 -62 106 -93
l64 -56 159 -18 c88 -10 171 -24 186 -32 27 -13 28 -13 11 -48 -9 -19 -20 -35
-24 -35 -19 0 -137 -123 -161 -167 -26 -47 -52 -131 -63 -206 -4 -24 -14 -43
-31 -53 -39 -26 -71 -92 -88 -179 -27 -143 -85 -324 -147 -459 -33 -72 -78
-176 -100 -231 -22 -55 -52 -111 -65 -125 -24 -25 -27 -25 -191 -26 l-167 -1
-54 51 c-30 28 -77 85 -105 126 -68 101 -189 218 -333 320 -65 46 -153 109
-195 140 -42 31 -155 98 -252 148 -230 119 -230 119 -222 151 9 38 32 56 115
90 53 22 81 40 92 59 55 91 144 140 274 149 113 8 131 22 145 115 15 97 7 108
-84 110 -40 1 -101 0 -137 -1 -80 -3 -96 11 -110 92 -12 75 -33 112 -99 175
-102 98 -180 142 -287 161 -70 13 -95 6 -226 -59 -163 -83 -261 -170 -309
-275 -16 -35 -39 -70 -51 -77 -13 -7 -73 -15 -135 -18 -88 -4 -116 -9 -131
-23 -23 -21 -36 -76 -27 -118 6 -27 10 -29 55 -29 42 0 55 -5 94 -40 47 -40
62 -45 175 -54 43 -4 84 -16 124 -36 67 -33 247 -151 247 -162 0 -3 -17 -12
-37 -18 -21 -7 -101 -43 -178 -80 -103 -51 -171 -92 -260 -160 -66 -51 -154
-117 -195 -148 -41 -31 -122 -100 -179 -154 -61 -59 -127 -111 -160 -128 -55
-28 -93 -61 -123 -110 -18 -30 -184 -124 -250 -141 -63 -17 -149 7 -252 69
l-77 47 -84 177 c-46 98 -112 221 -146 275 -139 217 -308 641 -288 718 15 55
101 168 147 193 30 17 66 54 119 126 41 55 94 118 118 138 58 51 69 82 61 171
-4 39 -10 101 -13 137 -5 59 -10 71 -58 135 -29 39 -62 89 -74 112 -12 23 -31
47 -42 54 -36 19 -157 34 -274 34 -107 0 -112 -1 -188 -38 -93 -45 -182 -129
-216 -202 -23 -49 -35 -108 -47 -229 -4 -43 -12 -64 -27 -77 -92 -79 -87 -70
-87 -161 0 -46 -4 -87 -8 -93 -4 -6 -62 -10 -137 -10 -168 0 -245 -22 -337
-96 -87 -70 -120 -88 -298 -162 -85 -36 -210 -90 -278 -121 -134 -61 -168 -66
-257 -42 -76 20 -128 51 -149 88 -40 70 -100 118 -149 118 -27 0 -71 31 -87
60 -5 10 -23 83 -40 162 -16 79 -34 159 -40 178 -17 57 -100 666 -107 780 -6
104 -6 105 22 138 38 45 106 78 205 98 108 21 252 15 330 -14 30 -12 78 -26
105 -32 28 -5 60 -12 73 -15 21 -5 22 -2 22 54 0 33 -5 71 -12 85 -14 32 -68
59 -174 87 l-81 22 64 136 65 136 -5 75 c-12 158 -24 221 -46 244 -36 38 -158
117 -219 141 -129 52 -217 43 -383 -40 -102 -50 -117 -55 -179 -55 -83 0 -198
29 -279 69 -33 17 -63 31 -67 31 -3 0 -4 -46 -2 -102 3 -76 9 -115 25 -149 25
-56 84 -123 136 -156 53 -33 62 -63 38 -119 -23 -52 -111 -143 -161 -166 -19
-9 -66 -19 -105 -23 -65 -6 -74 -5 -129 24 -74 39 -111 40 -431 4 l-240 -26
-260 17 c-453 29 -526 31 -561 13 -37 -19 -101 -88 -114 -123 -22 -57 -13 -92
38 -143 74 -73 94 -77 280 -51 237 34 435 21 677 -45 55 -15 119 -25 157 -25
53 0 72 -5 104 -26 90 -60 98 -111 29 -178 -25 -24 -58 -67 -72 -97 -46 -91
-107 -141 -277 -224 -110 -54 -190 -86 -295 -116 -79 -22 -165 -51 -190 -64
-76 -38 -138 -55 -274 -76 -71 -11 -142 -26 -157 -34 -47 -24 -70 -62 -70
-116 0 -43 5 -54 54 -111 29 -35 108 -115 175 -179 154 -148 155 -152 38 -314
-66 -92 -303 -389 -354 -442 -51 -54 -75 -55 -185 -6 -84 37 -180 54 -192 35
-3 -6 -9 -38 -13 -72 -6 -59 -5 -62 28 -96 19 -20 84 -76 146 -125 96 -77 112
-94 115 -122 3 -29 7 -32 38 -35 19 -2 39 -7 45 -12 6 -5 34 3 65 18 48 24 66
42 148 152 168 227 201 265 287 335 47 38 95 84 107 104 57 92 126 141 197
141 48 0 50 11 -30 -155 -36 -75 -76 -142 -109 -180 -28 -33 -91 -114 -138
-180 -48 -66 -121 -155 -162 -199 -70 -74 -75 -81 -74 -122 1 -67 30 -129 81
-174 43 -37 120 -70 165 -70 36 0 139 -41 203 -80 112 -68 139 -56 144 64 4
98 9 90 -124 195 -73 59 -101 105 -86 143 9 21 70 83 327 331 100 96 102 97
151 97 47 0 50 -2 61 -34 15 -41 71 -93 121 -113 20 -8 87 -40 150 -71 107
-53 119 -57 185 -57 120 0 109 -50 102 448 -8 535 -8 521 5 571 10 38 118 287
176 404 15 31 63 92 117 147 83 86 95 94 138 100 53 8 91 -6 120 -46 17 -22
21 -54 29 -203 15 -280 33 -349 157 -588 97 -189 136 -227 247 -242 43 -5 56
-13 95 -55 33 -35 57 -52 90 -61 55 -15 175 -5 208 16 13 9 180 68 370 131
279 93 361 117 421 121 l74 5 -7 -43 c-4 -23 -26 -92 -50 -154 -31 -78 -45
-133 -50 -185 -3 -40 -16 -95 -27 -121 -29 -66 -114 -144 -229 -210 -129 -74
-166 -113 -219 -235 -59 -135 -108 -213 -223 -361 -53 -69 -100 -138 -103
-155 -8 -36 14 -74 57 -97 16 -10 48 -29 69 -45 38 -26 39 -29 39 -87 0 -91
-16 -150 -92 -342 -77 -193 -112 -247 -182 -279 -54 -24 -134 -24 -221 1 -88
25 -141 25 -181 1 -52 -32 -89 -131 -68 -186 9 -22 45 -39 228 -107 89 -32
180 -72 203 -88 67 -48 134 -38 178 27 76 113 96 149 95 172 -4 60 1 72 61
128 80 76 143 166 159 228 27 100 73 211 101 240 27 28 34 30 103 30 41 0 77
-3 81 -6 9 -10 -219 -692 -265 -789 -93 -198 -39 -260 280 -326 91 -19 170
-34 176 -34 6 0 23 11 38 25 23 21 26 32 26 90 0 63 -1 65 -22 60 -20 -5 -31
6 -77 75 -29 44 -69 92 -88 107 -62 51 -83 72 -83 86 0 18 196 325 283 443 79
108 133 159 177 169 19 4 55 0 96 -11 72 -19 119 -12 168 27 69 54 79 142 81
669 0 308 4 421 13 437 7 12 28 34 46 48 28 21 51 62 118 211 l83 184 47 0
c36 0 48 -4 48 -15 0 -9 24 -64 54 -124 65 -128 117 -274 141 -391 31 -154 42
-173 183 -317 138 -142 163 -157 284 -170 47 -5 63 -2 92 15 l35 21 126 -55
c69 -30 128 -54 131 -54 2 0 4 19 4 43 0 40 3 45 38 65 20 11 84 55 142 96 58
41 139 94 181 117 51 27 114 76 188 144 121 113 200 160 286 171 42 5 55 2 75
-14 25 -20 25 -22 25 -179 0 -146 2 -161 23 -196 42 -73 27 -116 -105 -290
-50 -66 -96 -137 -102 -159 -10 -31 -48 -75 -174 -202 -172 -171 -334 -345
-354 -380 -20 -35 -15 -73 15 -106 29 -32 403 -227 536 -280 151 -59 160 -75
175 -320 6 -91 14 -194 17 -230 l6 -65 -148 -29 c-236 -46 -260 -59 -271 -144
-5 -36 -2 -41 38 -75 23 -21 59 -42 78 -47 20 -5 109 -10 198 -10 139 0 172
-3 227 -21 l65 -21 29 21 c29 20 30 23 37 133 3 62 13 158 22 213 9 55 19 188
23 295 5 134 11 207 22 235 l15 40 80 3 c73 3 84 0 109 -21 l28 -24 -13 -94
c-10 -79 -10 -114 3 -224 12 -101 13 -144 5 -191 -9 -52 -7 -77 10 -162 12
-56 21 -113 21 -127 0 -33 24 -81 45 -89 27 -10 104 -7 205 9 52 8 141 19 198
25 116 12 207 41 223 72 14 25 6 81 -16 114 -13 20 -23 24 -68 24 -28 -1 -72
-5 -97 -10 l-45 -9 -69 67 c-108 106 -146 158 -146 200 0 21 5 53 11 72 5 19
14 82 20 140 19 208 48 239 403 430 125 67 143 80 164 118 15 26 25 62 25 90
2 40 -4 56 -42 112 -25 36 -104 126 -176 200 -251 259 -264 275 -317 388 -27
57 -60 119 -73 137 -25 32 -25 34 -25 241 0 236 8 268 72 318 74 56 67 60 523
-329 110 -94 261 -222 335 -284 132 -111 136 -113 177 -108 53 6 163 58 273
129 l85 54 29 90 c40 125 67 179 132 259 55 67 92 137 129 238 9 26 32 69 51
95 19 26 51 72 73 102 64 91 70 95 133 76 81 -23 138 -65 177 -129 78 -132
115 -267 137 -497 8 -91 22 -192 30 -225 20 -78 77 -184 203 -377 107 -165
104 -161 197 -174 28 -3 56 -9 61 -13 6 -3 24 -33 41 -66 16 -33 65 -109 108
-170 42 -60 101 -145 131 -188 82 -120 73 -151 -61 -215 -93 -45 -127 -80
-146 -151 -16 -60 -6 -104 34 -146 65 -69 134 -41 296 116 43 42 85 72 124 89
71 30 97 62 104 128 7 73 -8 126 -117 419 -54 148 -108 300 -119 340 -18 64
-18 72 -4 78 25 9 76 -48 160 -180 121 -191 177 -260 281 -347 53 -44 119
-108 146 -141 62 -75 91 -84 126 -37 83 109 145 155 254 190 56 18 62 25 67
73 3 29 -2 52 -15 75 -17 29 -24 32 -70 34 -132 6 -179 -9 -211 -63 -10 -16
-23 -29 -30 -29 -8 0 -39 69 -76 168 -46 120 -73 178 -98 206 -19 21 -52 78
-74 125 -22 47 -48 104 -59 127 -27 57 -24 73 21 137 45 63 70 124 70 171 0
39 -43 113 -110 191 -29 33 -63 78 -77 100 -14 22 -64 82 -110 133 -73 78 -98
99 -173 138 -132 68 -266 212 -373 402 -80 141 -102 212 -81 266 13 34 223 14
319 -30 51 -24 78 -28 197 -35 104 -5 154 -13 205 -31 56 -19 87 -23 173 -22
58 0 135 4 172 8 l67 7 3 37 c3 36 3 36 78 57 113 31 215 116 248 205 5 14 12
75 16 135 12 188 36 436 51 531 14 83 20 99 74 181 l59 90 52 6 c66 8 98 -7
128 -62 14 -25 38 -49 61 -60 58 -30 102 -87 169 -218 103 -202 136 -323 187
-693 28 -204 45 -268 83 -319 23 -31 74 -61 105 -61 8 0 22 17 31 38 14 30 38
51 116 101 54 34 122 83 151 108 62 53 91 65 126 56 33 -8 358 -278 434 -361
32 -33 65 -81 74 -105 l17 -44 -30 -54 c-34 -60 -42 -100 -44 -206 -1 -81 7
-96 58 -113 29 -10 38 -9 53 4 10 9 35 16 60 16 l42 0 30 67 c38 84 54 103 91
103 31 0 59 23 82 69 9 16 24 34 33 39 15 9 15 17 4 80 -11 65 -19 78 -102
188 -57 75 -100 145 -120 193 -21 50 -64 118 -125 199 -52 68 -94 125 -94 128
0 16 63 -21 215 -126 398 -274 474 -319 552 -334 27 -4 40 1 82 34 63 50 144
147 176 211 30 58 55 149 55 200 l0 36 -209 -42 -209 -42 -67 35 c-80 42 -178
132 -298 271 -110 128 -130 170 -131 276 l-1 79 39 9 38 10 -5 51 c-4 44 -1
56 25 93 16 24 36 62 44 85 18 51 29 178 16 196 -5 7 -71 19 -173 30 -96 11
-176 25 -194 34 -43 23 -93 35 -243 57 -89 14 -155 30 -200 50 -85 36 -152 57
-225 70 -74 13 -100 30 -165 105 -65 75 -106 157 -98 192 9 34 75 63 145 64
29 0 92 9 140 19 47 11 167 36 266 56 277 55 388 80 411 93 40 21 72 71 98
149 30 89 32 125 11 147 -15 15 -75 36 -105 36 -8 0 -37 14 -65 30 -86 51
-115 39 -150 -60 -24 -70 -37 -90 -70 -108 -26 -14 -95 -16 -545 -18 l-515 -2
-229 -51 c-127 -28 -234 -51 -238 -51 -4 0 -8 98 -8 218 0 193 3 222 20 260
10 23 26 42 33 42 24 0 75 66 83 105 7 40 -1 122 -17 173 -9 29 -14 32 -47 32
-20 -1 -53 -7 -72 -13z"/>
<path d="M11174 12878 c-41 -38 -93 -107 -188 -254 -61 -93 -42 -204 49 -278
54 -45 65 -83 35 -124 -16 -21 -23 -49 -27 -107 -5 -64 -11 -83 -29 -102 -28
-28 -49 -29 -105 -3 -59 26 -65 25 -78 -11 -18 -53 -13 -81 29 -149 22 -36 47
-87 57 -115 20 -62 99 -141 239 -240 54 -38 128 -101 164 -138 75 -79 104 -97
157 -97 85 0 83 -3 81 134 -2 142 17 204 82 279 37 42 39 48 34 89 -8 55 20
115 70 153 l34 26 -45 75 c-49 81 -65 94 -115 94 -48 0 -96 -37 -153 -119 -28
-39 -53 -71 -57 -71 -15 0 -59 103 -65 150 -10 85 2 117 67 178 89 82 105 122
104 262 0 108 -2 121 -31 182 -17 36 -47 91 -67 122 -20 31 -36 60 -36 64 0
10 -103 42 -136 42 -15 0 -42 -16 -70 -42z"/>
<path d="M28205 10530 c-198 -192 -360 -354 -360 -360 0 -10 3714 -3820 3724
-3820 3 1 169 162 369 358 l363 357 -1859 1904 c-1022 1048 -1863 1906 -1868
1908 -5 2 -171 -154 -369 -347z"/>
<path d="M10225 9733 c-181 -28 -353 -78 -492 -145 -405 -192 -759 -633 -880
-1096 -34 -132 -42 -346 -19 -482 34 -195 107 -360 256 -580 149 -219 295
-391 711 -841 405 -438 529 -591 623 -769 92 -176 100 -308 26 -458 -76 -152
-227 -279 -385 -323 -30 -8 -95 -14 -160 -13 -180 1 -363 61 -598 198 -399
232 -655 494 -743 762 -26 81 -29 101 -28 219 1 149 20 227 98 405 l44 100
-422 291 c-231 161 -428 294 -437 296 -12 3 -33 -21 -75 -89 -382 -616 -342
-1299 111 -1923 346 -476 1012 -953 1577 -1130 459 -143 925 -116 1311 76 397
197 725 605 843 1044 36 135 45 374 20 510 -36 191 -116 376 -250 580 -109
165 -194 267 -636 760 -566 632 -668 756 -747 913 -94 188 -78 351 53 519 179
230 459 282 799 146 250 -99 542 -318 695 -520 70 -93 145 -245 165 -339 37
-164 6 -358 -82 -527 -21 -39 -32 -72 -27 -76 22 -21 853 -591 861 -591 13 0
97 144 147 253 229 490 218 954 -34 1457 -180 359 -464 667 -855 930 -328 220
-627 354 -940 421 -80 17 -140 22 -300 24 -110 2 -213 1 -230 -2z"/>
<path d="M27576 8079 c-267 -31 -567 -141 -856 -315 -553 -332 -870 -744 -961
-1250 -29 -161 -32 -493 -5 -664 67 -439 253 -849 554 -1226 359 -451 882
-756 1382 -805 314 -30 681 54 1025 235 499 263 856 615 1026 1011 136 318
159 779 59 1190 -82 343 -274 722 -516 1025 -249 311 -603 568 -969 705 -243
91 -494 123 -739 94z m207 -968 c335 -86 660 -408 901 -892 126 -254 172 -434
163 -644 -6 -139 -23 -209 -77 -320 -68 -140 -178 -254 -351 -360 -162 -100
-354 -147 -514 -127 -316 40 -599 253 -858 647 -140 214 -249 456 -293 655
-26 113 -23 322 4 423 27 97 87 213 152 294 107 132 338 279 510 323 103 26
262 26 363 1z"/>
<path d="M16947 6679 c-16 -499 -130 -5129 -127 -5133 6 -5 1009 -30 1014 -25
2 2 16 468 30 1034 14 567 28 1082 31 1145 27 524 213 840 560 950 96 31 308
39 415 16 222 -47 355 -179 419 -416 43 -158 43 -181 10 -1508 -18 -689 -30
-1254 -27 -1257 4 -5 1030 -35 1036 -30 6 5 62 2344 62 2616 0 436 -18 576
-99 754 -80 176 -266 391 -426 494 -143 91 -329 161 -525 197 -135 25 -394 30
-525 9 -351 -54 -612 -211 -825 -494 l-40 -53 0 93 c0 52 9 423 20 824 11 402
20 778 20 836 l0 106 -317 6 c-175 4 -404 10 -509 14 l-191 6 -6 -184z"/>
<path d="M13895 6274 c-646 -100 -1142 -555 -1448 -1329 -141 -357 -213 -681
-224 -1011 -24 -746 263 -1263 873 -1568 258 -129 543 -217 804 -247 143 -16
397 -6 517 20 402 88 784 351 1039 716 64 93 179 315 167 325 -4 4 -222 76
-484 159 -262 83 -483 153 -490 156 -10 3 -28 -23 -58 -82 -113 -221 -276
-373 -439 -409 -144 -32 -336 1 -512 88 -122 61 -232 171 -288 288 -64 136
-76 198 -76 395 0 146 4 189 28 300 72 342 206 695 346 910 29 45 97 124 154
180 83 83 116 108 187 143 161 79 320 91 504 37 261 -76 423 -233 471 -455 15
-66 20 -220 11 -334 l-2 -29 495 -158 c272 -87 496 -156 498 -154 9 9 44 249
54 372 20 260 -16 516 -101 714 -119 276 -404 549 -759 728 -150 75 -415 171
-585 210 -214 50 -493 64 -682 35z"/>
<path d="M23270 6154 c-384 -46 -771 -167 -1040 -326 -212 -125 -394 -287
-519 -463 -127 -180 -243 -466 -295 -725 -102 -510 -28 -1055 213 -1582 172
-375 493 -738 826 -933 393 -230 850 -273 1414 -134 530 131 911 359 1165 696
75 100 189 323 235 458 145 434 158 871 40 1350 -136 550 -404 983 -811 1310
-219 176 -447 281 -718 331 -82 16 -430 27 -510 18z m232 -923 c358 -92 624
-442 768 -1011 99 -392 87 -705 -37 -957 -119 -239 -361 -397 -683 -444 -321
-47 -623 108 -827 424 -188 290 -324 786 -310 1127 20 476 260 765 718 865 98
21 281 19 371 -4z"/>
</g>
</svg>
